# xmcd
#
# Track frame offsets: 
#        182
#        27277
#        46150
#        67792
#        89275
#        111275
#        134682
#        163242
#        182247
#        206970
#
# Disc length: 3150 seconds
#
# Revision: 6
# Processed by: cddbd v1.5.2PL0 Copyright (c) Steve Scherf et al.
# Submitted via: ExactAudioCopy v0.99pb5
#
DISCID=8f0c4c0a
DTITLE=Robert Cray - Some Rainy Morning
DYEAR=1995
DGENRE=Blues
TTITLE0=Moan
TTITLE1=I'll Go On
TTITLE2=Steppin' Out
TTITLE3=Never Mattered Much
TTITLE4=Tell The Landlord
TTITLE5=Little Boy Big
TTITLE6=Enough For Me
TTITLE7=Jealous Love
TTITLE8=Will You Think Of Me
TTITLE9=Holdin' On
EXTD=YEAR: 1995 ID3G: 0
EXTT0=
EXTT1=
EXTT2=
EXTT3=
EXTT4=
EXTT5=
EXTT6=
EXTT7=
EXTT8=
EXTT9=
PLAYORDER=
